# xmcd CD database file
#
# Track frame offsets:
#	150
#	27941
#	56314
#	86462
#	113316
#	143713
#	167517
#	192074
#	218666
#	242094
#	270714
#	297569
#	328232
#
# Disc length: 4766 seconds
#
# Revision: 0
# Processed by: cddbd v1.5.1PL2 Copyright (c) Steve Scherf et al.
# Submitted via: CDex 1.51
#
DISCID=b0129c0d
DTITLE=D.Trance 33 - CD3
DYEAR=2006
DGENRE=New Age
TTITLE0=Special Turntable Mix by Gary D.
TTITLE1=Special Turntable Mix by Gary D.
TTITLE2=Special Turntable Mix by Gary D.
TTITLE3=Special Turntable Mix by Gary D.
TTITLE4=Special Turntable Mix by Gary D.
TTITLE5=Special Turntable Mix by Gary D.
TTITLE6=Special Turntable Mix by Gary D.
TTITLE7=Special Turntable Mix by Gary D.
TTITLE8=Special Turntable Mix by Gary D.
TTITLE9=Special Turntable Mix by Gary D.
TTITLE10=Special Turntable Mix by Gary D.
TTITLE11=Special Turntable Mix by Gary D.
TTITLE12=Special Turntable Mix by Gary D.
EXTD=YEAR: 2006
EXTT0=
EXTT1=
EXTT2=
EXTT3=
EXTT4=
EXTT5=
EXTT6=
EXTT7=
EXTT8=
EXTT9=
EXTT10=
EXTT11=
EXTT12=
PLAYORDER=
